<svg width="89" height="52" viewBox="0 0 89 52" fill="none" xmlns="http://www.w3.org/2000/svg">
<path d="M67.0917 16.5794L74.5283 3.72693C75.175 2.47401 74.69 0.938178 73.4775 0.291511C72.9082 -0.00524992 72.2485 -0.0785713 71.6279 0.0859273C71.0073 0.250426 70.4705 0.640874 70.1229 1.18068L62.5246 14.2757C56.809 11.8553 50.6653 10.608 44.4583 10.608C38.2514 10.608 32.1077 11.8553 26.3921 14.2757L18.7938 1.18068C18.4263 0.616918 17.8546 0.21765 17.1988 0.0668883C16.5429 -0.0838732 15.8542 0.025625 15.2775 0.372345C14.1458 1.09984 13.7821 2.55485 14.3883 3.72693L21.825 16.5794C15.6548 20.1042 10.4404 25.0847 6.63633 31.0867C2.83225 37.0887 0.553935 43.9301 0 51.0144H88.9167C88.3627 43.9301 86.0844 37.0887 82.2803 31.0867C78.4762 25.0847 73.2619 20.1042 67.0917 16.5794ZM24.25 39.8998C22.9101 39.8998 21.6251 39.3676 20.6776 38.4201C19.7302 37.4727 19.1979 36.1877 19.1979 34.8478C19.1979 33.5079 19.7302 32.2229 20.6776 31.2754C21.6251 30.328 22.9101 29.7957 24.25 29.7957C25.5899 29.7957 26.8749 30.328 27.8224 31.2754C28.7698 32.2229 29.3021 33.5079 29.3021 34.8478C29.3021 36.1877 28.7698 37.4727 27.8224 38.4201C26.8749 39.3676 25.5899 39.8998 24.25 39.8998ZM64.6667 39.8998C63.3268 39.8998 62.0418 39.3676 61.0943 38.4201C60.1469 37.4727 59.6146 36.1877 59.6146 34.8478C59.6146 33.5079 60.1469 32.2229 61.0943 31.2754C62.0418 30.328 63.3268 29.7957 64.6667 29.7957C66.0066 29.7957 67.2916 30.328 68.239 31.2754C69.1865 32.2229 69.7188 33.5079 69.7188 34.8478C69.7188 36.1877 69.1865 37.4727 68.239 38.4201C67.2916 39.3676 66.0066 39.8998 64.6667 39.8998Z" fill="#00C4F0"/>
</svg>
