<svg width="78" height="104" viewBox="0 0 78 104" fill="none" xmlns="http://www.w3.org/2000/svg">
<path d="M64.7359 54.5797C64.6953 47.125 68.0672 41.4984 74.8922 37.3547C71.0734 31.8906 65.3047 28.8844 57.6875 28.2953C50.4766 27.7266 42.5953 32.5 39.7109 32.5C36.6641 32.5 29.6766 28.4984 24.1922 28.4984C12.8578 28.6813 0.8125 37.5375 0.8125 55.5547C0.8125 60.8766 1.7875 66.3745 3.7375 72.0484C6.3375 79.5031 15.7219 97.7844 25.5125 97.4797C30.6312 97.3578 34.2469 93.8438 40.9094 93.8438C47.3687 93.8438 50.7203 97.4797 56.4281 97.4797C66.3 97.3375 74.7906 80.7219 77.2687 73.2469C64.025 67.0109 64.7359 54.9656 64.7359 54.5797ZM53.2391 21.2266C58.7844 14.6453 58.2766 8.65313 58.1141 6.5C53.2187 6.78437 47.5516 9.83125 44.3219 13.5891C40.7672 17.6109 38.675 22.5875 39.1219 28.1938C44.4234 28.6 49.2578 25.8781 53.2391 21.2266Z" fill="#00C4F0"/>
</svg>
