<svg width="75" height="75" viewBox="0 0 75 75" fill="none" xmlns="http://www.w3.org/2000/svg">
<path d="M22.7983 51.7469L26.7046 46.8656L14.1296 36.8063L26.7046 26.7469L22.7983 21.8656L7.17334 34.3656C6.80723 34.6584 6.51168 35.0298 6.30857 35.4522C6.10546 35.8747 6 36.3375 6 36.8063C6 37.275 6.10546 37.7378 6.30857 38.1603C6.51168 38.5827 6.80723 38.9541 7.17334 39.2469L22.7983 51.7469ZM51.7046 21.8656L47.7983 26.7469L60.3733 36.8063L47.7983 46.8656L51.7046 51.7469L67.3296 39.2469C67.6957 38.9541 67.9912 38.5827 68.1944 38.1603C68.3975 37.7378 68.5029 37.275 68.5029 36.8063C68.5029 36.3375 68.3975 35.8747 68.1944 35.4522C67.9912 35.0298 67.6957 34.6584 67.3296 34.3656L51.7046 21.8656ZM46.5515 9.35625L34.0515 65.6063L27.9483 64.25L40.4483 8L46.5515 9.35625Z" fill="#00C4F0"/>
</svg>
