<svg width="79" height="79" viewBox="0 0 79 79" fill="none" xmlns="http://www.w3.org/2000/svg">
<g clip-path="url(#clip0_2_111)">
<path d="M39.9444 0.0098875C38.3097 -0.0715043 36.6864 0.321748 35.2702 1.14222L8.39376 16.6558C7.08239 17.4174 5.99914 18.5165 5.25681 19.8389L18.2819 26.9818C18.7777 26.1859 19.4587 25.5218 20.2668 25.0463L36.5638 15.6321C37.4447 15.124 38.4436 14.8565 39.4605 14.8565C40.4774 14.8565 41.4764 15.124 42.3572 15.6321L58.6542 25.0463C59.3271 25.4297 59.916 25.9447 60.3856 26.5605L73.2923 19.1048C72.5844 18.104 71.668 17.2685 70.6063 16.6558L43.7496 1.14222C42.5914 0.475689 41.2921 0.0922181 39.9576 0.0230542L39.9444 0.0098875ZM39.4671 16.1786C38.6813 16.1783 37.9094 16.385 37.2288 16.7776L20.935 26.1786C20.3307 26.5312 19.8186 27.0219 19.4406 27.6105L25.7606 31.0832C26.0372 30.7167 26.3841 30.409 26.781 30.178L37.7752 23.8317C38.3014 23.529 38.8979 23.3697 39.505 23.3697C40.112 23.3697 40.7085 23.529 41.2347 23.8317L52.2157 30.178C52.5074 30.357 52.7713 30.5777 52.9991 30.833L53.0584 30.8001L53.0518 30.7936L59.2303 27.2386C58.8893 26.8131 58.4732 26.4538 58.0025 26.1786L41.7087 16.7645C41.027 16.376 40.255 16.1739 39.4704 16.1786H39.4671ZM73.8058 19.9607L60.9024 27.3998C61.3338 28.2248 61.5596 29.1417 61.5608 30.0727V48.8845C61.5608 50.9484 60.4679 52.8675 58.6641 53.9142L42.3703 63.3284C41.7201 63.6968 41.0047 63.936 40.2637 64.0328V78.9243C41.4864 78.8368 42.6757 78.4853 43.7496 77.894L70.6161 62.3804C71.9051 61.6366 72.9757 60.5667 73.7205 59.2783C74.4652 57.9899 74.8579 56.5282 74.8591 55.04V24.0193C74.8524 22.6057 74.4926 21.2163 73.8123 19.9771L73.8058 19.9607ZM4.88814 20.7441C4.42535 21.77 4.17135 22.8778 4.14093 24.0028V55.0433C4.14093 58.065 5.75714 60.8596 8.39706 62.3804L35.2636 77.894C36.494 78.5943 37.8805 78.9745 39.2959 79V64.0855C38.3318 64.0597 37.3894 63.7939 36.554 63.3119L20.2635 53.9175C19.3839 53.4055 18.6543 52.6713 18.1477 51.7886C17.6411 50.9059 17.3752 49.9056 17.3767 48.8878V30.0727C17.3739 29.3099 17.5204 28.554 17.8079 27.8475L4.88814 20.7441ZM59.7602 28.0615L53.539 31.656C53.7884 32.1231 53.928 32.6409 53.9471 33.1701V45.8628C53.9471 47.107 53.2888 48.2328 52.2157 48.8483L41.2347 55.2013C40.9307 55.3671 40.6033 55.4859 40.2637 55.5535V62.6964C40.764 62.6075 41.2643 62.4396 41.712 62.1796L58.0025 52.7687C58.6841 52.3752 59.2499 51.8089 59.6429 51.127C60.0358 50.4451 60.2421 49.6716 60.2408 48.8845V30.0727C60.2367 29.3781 60.071 28.6941 59.7569 28.0746L59.7602 28.0615ZM18.9863 28.4894C18.7949 28.9953 18.6968 29.5317 18.6967 30.0727V48.8845C18.6954 49.6716 18.9016 50.4451 19.2946 51.127C19.6876 51.8089 20.2534 52.3752 20.935 52.7687L37.2288 62.1829C37.8673 62.5516 38.5849 62.7293 39.2926 62.7655V55.6094C38.7636 55.5917 38.2457 55.4532 37.7785 55.2046L26.7942 48.8582C26.266 48.5571 25.8262 48.1226 25.5189 47.598C25.2115 47.0734 25.0474 46.4773 25.043 45.8694V33.1866C25.0442 32.757 25.1304 32.3319 25.2965 31.9358L25.1846 31.893L18.9863 28.4894Z" fill="#00C4F0"/>
</g>
<defs>
<clipPath id="clip0_2_111">
<rect width="79" height="79" fill="white"/>
</clipPath>
</defs>
</svg>
