<svg width="75" height="59" viewBox="0 0 75 59" fill="none" xmlns="http://www.w3.org/2000/svg">
<path d="M0 9.375C0 9.375 0 0 9.375 0H65.625C65.625 0 75 0 75 9.375V37.5C75 37.5 75 46.875 65.625 46.875H46.875C46.875 50.0016 47.2641 52.3453 48.0469 53.9062H51.5625C52.1841 53.9062 52.7802 54.1532 53.2198 54.5927C53.6593 55.0323 53.9062 55.6284 53.9062 56.25C53.9062 56.8716 53.6593 57.4677 53.2198 57.9073C52.7802 58.3468 52.1841 58.5938 51.5625 58.5938H23.4375C22.8159 58.5938 22.2198 58.3468 21.7802 57.9073C21.3407 57.4677 21.0938 56.8716 21.0938 56.25C21.0938 55.6284 21.3407 55.0323 21.7802 54.5927C22.2198 54.1532 22.8159 53.9062 23.4375 53.9062H26.9531C27.7359 52.3453 28.125 50.0016 28.125 46.875H9.375C9.375 46.875 0 46.875 0 37.5V9.375ZM6.55312 5.36719C6.03823 5.72567 5.62743 6.2141 5.3625 6.78281C4.96293 7.60838 4.73339 8.50585 4.6875 9.42188V37.5C4.6875 39.0234 5.05312 39.8531 5.36719 40.3219C5.69531 40.8141 6.16406 41.2031 6.78281 41.5125C7.57283 41.8952 8.42893 42.1227 9.30469 42.1828L9.42188 42.1875H65.625C67.1484 42.1875 67.9781 41.8219 68.4469 41.5078C68.9618 41.1493 69.3726 40.6609 69.6375 40.0922C70.0202 39.3022 70.2477 38.4461 70.3078 37.5703L70.3125 37.4531V9.375C70.3125 7.85156 69.9469 7.02187 69.6328 6.55312C69.2745 6.03808 68.786 5.62724 68.2172 5.3625C67.3916 4.96293 66.4942 4.73339 65.5781 4.6875H9.375C7.85156 4.6875 7.02187 5.05312 6.55312 5.36719Z" fill="#00C4F0"/>
</svg>
