<svg width="75" height="75" viewBox="0 0 75 75" fill="none" xmlns="http://www.w3.org/2000/svg">
<g clip-path="url(#clip0_2_126)">
<path d="M73.5845 34.1578L40.8376 1.41564C40.3892 0.967055 39.8569 0.611204 39.2709 0.368419C38.685 0.125634 38.057 0.000671387 37.4227 0.000671387C36.7885 0.000671387 36.1605 0.125634 35.5746 0.368419C34.9886 0.611204 34.4563 0.967055 34.0079 1.41564L27.211 8.21251L35.836 16.8375C36.8532 16.4902 37.9476 16.4359 38.9942 16.6807C40.0408 16.9255 40.9975 17.4597 41.7551 18.2222C42.5127 18.9847 43.0407 19.9448 43.2788 20.9929C43.5169 22.0411 43.4555 23.1351 43.1017 24.15L51.4126 32.4656C52.6422 32.0327 53.9825 32.0314 55.213 32.4619C56.4434 32.8924 57.4906 33.7291 58.182 34.8342C58.8734 35.9393 59.1679 37.2469 59.017 38.5418C58.8661 39.8366 58.2787 41.0414 57.3517 41.9578C56.4131 42.9021 55.1759 43.4912 53.8513 43.6246C52.5266 43.758 51.1968 43.4273 50.0889 42.6891C48.981 41.9508 48.1638 40.8508 47.7768 39.577C47.3899 38.3031 47.4572 36.9344 47.9673 35.7047L40.2188 27.9516V48.3563C41.3966 48.9393 42.339 49.9083 42.8889 51.1019C43.4388 52.2954 43.5631 53.6414 43.2409 54.9155C42.9187 56.1896 42.1697 57.3147 41.1185 58.1035C40.0673 58.8922 38.7776 59.2968 37.4643 59.2499C36.1509 59.203 34.8934 58.7074 33.9011 57.8457C32.9089 56.984 32.242 55.8083 32.0116 54.5145C31.7811 53.2207 32.001 51.887 32.6347 50.7357C33.2684 49.5844 34.2775 48.685 35.4938 48.1875V27.5953C34.7921 27.3078 34.1542 26.8842 33.6169 26.3489C33.0796 25.8136 32.6536 25.1773 32.3634 24.4767C32.0732 23.776 31.9245 23.0248 31.926 22.2664C31.9275 21.508 32.079 20.7574 32.372 20.0578L23.8735 11.5547L1.4204 34.0078C0.971815 34.4562 0.615965 34.9885 0.37318 35.5745C0.130394 36.1604 0.00543213 36.7884 0.00543213 37.4227C0.00543213 38.0569 0.130394 38.6849 0.37318 39.2709C0.615965 39.8568 0.971815 40.3891 1.4204 40.8375L34.1673 73.5844C34.6156 74.033 35.148 74.3888 35.7339 74.6316C36.3199 74.8744 36.9479 74.9994 37.5821 74.9994C38.2164 74.9994 38.8444 74.8744 39.4303 74.6316C40.0162 74.3888 40.5486 74.033 40.997 73.5844L73.5892 40.9922C74.494 40.0861 75.0022 38.8579 75.0022 37.5774C75.0022 36.2968 74.494 35.0686 73.5892 34.1625" fill="#00C4F0"/>
</g>
<defs>
<clipPath id="clip0_2_126">
<rect width="75" height="75" fill="white"/>
</clipPath>
</defs>
</svg>
