<svg width="91" height="91" viewBox="0 0 91 91" fill="none" xmlns="http://www.w3.org/2000/svg">
<path d="M45.5 49.4054C49.2379 49.4054 52.2681 46.3752 52.2681 42.6373C52.2681 38.8993 49.2379 35.8691 45.5 35.8691C41.7621 35.8691 38.7319 38.8993 38.7319 42.6373C38.7319 46.3752 41.7621 49.4054 45.5 49.4054Z" fill="#00C4F0"/>
<path d="M26.5492 56.0939L25.0515 55.711C13.9268 52.9013 7.54541 48.1238 7.54541 42.6221C7.54541 37.1166 13.9306 32.3429 25.0515 29.5333L26.5492 29.1541L26.9701 30.6367C28.0945 34.5182 29.5351 38.301 31.2775 41.9472L31.5997 42.6221L31.2775 43.297C29.5333 46.9484 28.0887 50.7325 26.9701 54.6152L26.5492 56.0939ZM24.3615 32.9837C15.9098 35.3649 10.719 38.9973 10.719 42.6221C10.719 46.2394 15.906 49.8756 24.3615 52.253C25.3966 48.9618 26.6478 45.7427 28.0962 42.6221C26.6373 39.4964 25.3896 36.2764 24.3615 32.9837ZM64.447 56.0939L64.0299 54.6076C62.9025 50.7253 61.4607 46.9413 59.7187 43.2932L59.3965 42.6221L59.7187 41.9434C61.4629 38.2996 62.9 34.5117 64.0299 30.6291L64.447 29.1503L65.9447 29.5295C77.0732 32.3391 83.4508 37.1128 83.4508 42.6221C83.4508 48.1276 77.0694 52.9013 65.9447 55.711L64.447 56.0939ZM62.8924 42.6221C64.409 45.9057 65.6717 49.1362 66.6347 52.253C75.0902 49.8756 80.281 46.2394 80.281 42.6221C80.281 38.9973 75.0939 35.3687 66.6347 32.9837C65.6007 36.2753 64.3505 39.4951 62.8924 42.6221Z" fill="#00C4F0"/>
<path d="M24.3387 32.9686L23.9216 31.4898C20.7897 20.4636 21.7376 12.5656 26.5265 9.81285C31.2092 7.10181 38.7433 10.3058 46.6337 18.401L47.7105 19.5081L46.6337 20.6115C43.8312 23.5261 41.2697 26.6633 38.9745 29.9921L38.5461 30.6063L37.8029 30.667C33.767 30.984 29.7637 31.6294 25.8326 32.597L24.3387 32.9686ZM30.3371 12.0044C29.4878 12.0044 28.737 12.1902 28.1038 12.5542C24.9643 14.3628 24.4108 20.6608 26.572 29.1617C29.9504 28.4148 33.3591 27.8801 36.7943 27.5806C38.7831 24.7598 40.9527 22.0709 43.2895 19.5309C38.3489 14.7268 33.6852 12.0044 30.3371 12.0044ZM60.6591 76.4021C56.1546 76.4021 50.3685 73.0048 44.3625 66.8395L43.2895 65.7361L44.3625 64.6366C47.1655 61.7173 49.7281 58.5764 52.0255 55.2446L52.4501 54.6379L53.1857 54.5659C57.223 54.2545 61.2279 53.6116 65.1598 52.6435L66.6575 52.2643L67.0784 53.7469C70.1951 64.7655 69.251 72.6749 64.4697 75.4276C63.3088 76.0857 61.9934 76.4221 60.6591 76.4021ZM47.7105 65.7096C52.6473 70.5136 57.3148 73.2398 60.6591 73.2398C61.5122 73.2398 62.263 73.0503 62.8924 72.6901C66.0357 70.8776 66.593 64.5683 64.4242 56.0674C61.0496 56.8181 57.6371 57.3566 54.1943 57.6561C52.2139 60.4813 50.0479 63.1718 47.7105 65.7096Z" fill="#00C4F0"/>
<path d="M66.6575 32.9685L65.1598 32.5932C61.2281 31.6226 57.2232 30.9771 53.1857 30.6632L52.4501 30.5987L52.0254 29.9845C49.7313 26.6538 47.1684 23.5165 44.3625 20.6039L43.2894 19.5005L44.3625 18.401C52.2492 10.3095 59.7794 7.10557 64.4697 9.81282C69.2548 12.5694 70.2065 20.4674 67.0784 31.4898L66.6575 32.9685ZM54.1943 27.5806C57.8115 27.9029 61.2392 28.4451 64.4242 29.1617C66.5892 20.6608 66.0357 14.3628 62.8924 12.5504C59.768 10.7418 53.8872 13.5097 47.7105 19.5309C50.0462 22.0713 52.215 24.7558 54.1943 27.5806ZM30.3371 76.4021C29.0029 76.4211 27.6877 76.0848 26.5265 75.4276C21.7376 72.6749 20.7897 64.7692 23.9178 53.7469L24.3273 52.2643L25.825 52.6435C29.4802 53.5649 33.5069 54.2132 37.7991 54.5659L38.5347 54.6379L38.9632 55.2446C41.2533 58.5737 43.8165 61.717 46.6223 64.6365L47.6992 65.7361L46.6223 66.8395C40.6201 73.0085 34.834 76.4021 30.3371 76.4021ZM26.572 56.0712C24.4107 64.5721 24.9643 70.8814 28.1038 72.6938C31.2319 74.4759 37.0939 71.727 43.2894 65.7096C40.9536 63.1688 38.7841 60.4799 36.7943 57.6599C33.3556 57.3558 29.9408 56.825 26.572 56.0712Z" fill="#00C4F0"/>
<path d="M45.5 58.0618C42.8951 58.0618 40.222 57.9519 37.5375 57.7281L36.7943 57.6637L36.3659 57.0494C34.8521 54.8726 33.4277 52.635 32.0965 50.342C30.775 48.0428 29.5468 45.6913 28.4148 43.2933L28.0963 42.6221L28.4148 41.9434C29.5485 39.5471 30.7732 37.1963 32.0965 34.8985C33.4122 32.6387 34.8492 30.3788 36.3659 28.1873L36.7943 27.5806L37.5375 27.5123C42.834 27.0687 48.1584 27.0687 53.4549 27.5123L54.1905 27.5844L54.619 28.1911C57.6515 32.5467 60.3149 37.1481 62.5815 41.9472L62.8962 42.6259L62.5815 43.2971C60.3212 48.0994 57.6575 52.7013 54.619 57.0532L54.1905 57.6675L53.4549 57.7319C50.778 57.9481 48.1011 58.0618 45.5 58.0618ZM38.5461 54.6341C43.2288 54.9868 47.7712 54.9868 52.4501 54.6341C55.0622 50.8091 57.3841 46.7939 59.3965 42.6221C57.3912 38.4466 55.069 34.4309 52.4501 30.6101C47.8223 30.2537 43.1739 30.2537 38.5461 30.6101C35.9251 34.4295 33.6027 38.4454 31.5998 42.6221C33.6165 46.7916 35.9382 50.8065 38.5461 54.6341Z" fill="#00C4F0"/>
</svg>
